<?xml version="1.0" encoding="utf-8"?>
<svg viewBox="78.939 77.316 71.863 71.768" width="71.863px" height="71.768px" xmlns="http://www.w3.org/2000/svg"><g transform="matrix(1, 0, 0, 1, 72.61398315429688, 70.63998413085938)" id="object-0"><path fill="#16284C" d="M61.475,48.653c0.013-0.003,0.025-0.006,0.036-0.007"/><path fill="#16284C" d="M53.36,39.833c-0.088,0.758-0.007,1.563,0.174,2.106c0,0-0.072,0.448-0.059,0.631&#10;&#9;&#9;c0.044,0.051,0.082-0.05,0.099-0.124c0.003-0.02,0.026-0.065,0.035-0.076c0.249-0.313,0.025-1.593-0.035-1.88&#10;&#9;&#9;c0.016-0.18,0.032-0.36,0.05-0.541C53.593,39.945,53.514,39.663,53.36,39.833z"/><path fill="#16284C" d="M29.932,40.073c0.032,0.116-0.011,0.316-0.048,0.574c-0.004,0.031,0.051,0.108,0.117,0.124&#10;&#9;&#9;c0.075,0.018,0.171,0.042,0.253,0.056c0.034,0.006,0.103,0.098,0.102,0.171c-0.005,0.164-0.029,0.417-0.082,0.653&#10;&#9;&#9;c0.052,0.102,0.105,0.146,0.172,0.106c0.003-0.031,0.8-0.809,0.517-1.68c-0.278-0.41-0.501-0.469-1.041-0.548&#10;&#9;&#9;c-0.168,0.031-0.219,0.072-0.214,0.345C29.725,39.875,29.884,39.89,29.932,40.073z"/><path fill="#16284C" d="M33.831,44.222c-0.042-0.423,0.004-0.468,0.124-0.604c0.026-0.033,0.036-0.166,0.01-0.182&#10;&#9;&#9;c-0.104-0.068-0.184-0.081-0.323,0c-0.152,0.134-0.123,0.139-0.119,0.508C33.554,44.15,33.717,44.249,33.831,44.222z"/><path fill="#16284C" d="M65.865,52.647c-0.913,0-1.654,0.736-1.656,1.648c0,0.912,0.738,1.652,1.652,1.654&#10;&#9;&#9;c0.913,0,1.653-0.738,1.655-1.65C67.517,53.388,66.778,52.647,65.865,52.647z M65.861,55.769c-0.814,0-1.474-0.66-1.473-1.474&#10;&#9;&#9;c0.001-0.812,0.66-1.471,1.477-1.469c0.814,0,1.473,0.658,1.471,1.473C67.336,55.112,66.677,55.771,65.861,55.769z"/><path fill="#16284C" d="M65.058,55.209v-1.826l0.812,0.002c0.163,0,0.286,0.016,0.371,0.05s0.152,0.092,0.203,0.174&#10;&#9;&#9;c0.051,0.083,0.075,0.177,0.075,0.276c0,0.129-0.042,0.238-0.126,0.328c-0.084,0.088-0.213,0.145-0.389,0.168&#10;&#9;&#9;c0.063,0.033,0.112,0.062,0.146,0.092c0.069,0.062,0.137,0.145,0.199,0.242l0.316,0.498l-0.303-0.002l-0.242-0.379&#10;&#9;&#9;c-0.07-0.109-0.128-0.192-0.174-0.25c-0.046-0.058-0.087-0.1-0.123-0.121c-0.036-0.025-0.072-0.043-0.109-0.051&#10;&#9;&#9;c-0.027-0.004-0.072-0.008-0.135-0.008h-0.28l-0.002,0.809h-0.239V55.209z M65.301,54.191h0.52c0.11,0,0.198-0.01,0.261-0.034&#10;&#9;&#9;c0.062-0.021,0.109-0.058,0.142-0.107c0.033-0.051,0.048-0.105,0.047-0.166c0.001-0.086-0.03-0.156-0.093-0.213&#10;&#9;&#9;c-0.062-0.053-0.161-0.082-0.297-0.082h-0.578L65.301,54.191z"/><path fill="#16284C" d="M56.729,34.154l-0.023-0.104c-0.024-0.169-0.138-0.214-0.271-0.024c-0.213,0.347-0.321,0.49-0.531,0.85&#10;&#9;&#9;c-0.122,0.167-0.17,0.043-0.199-0.018c0.071-0.768,0.506-0.964,0.706-1.562c0.045-0.192-0.229-0.288-0.354-0.123&#10;&#9;&#9;c-0.002,0.03-0.404,0.891-0.589,1.231c-0.029,0.053-0.121,0.284-0.14,0.348c-0.09,0.323-0.151,0.652-0.32,0.959&#10;&#9;&#9;c-0.697,1.184-2.051,2.19-2.713,2.539c-0.1,0.053-0.317,0.078-0.347-0.244c-0.096-0.628,0.125-2.135,0.181-2.647&#10;&#9;&#9;c0.003-0.164-0.063-0.218-0.18-0.016c-0.039,0.545-0.083,1.104-0.24,1.505c-0.021,0.056-0.166,0.104-0.261-0.006&#10;&#9;&#9;c-0.243-0.297-0.274-1.954-0.223-2.563c0-0.207-0.152-0.209-0.179-0.017c-0.04,0.421-0.056,1.268-0.024,1.27&#10;&#9;&#9;c0.057,0.321-0.001,0.785-0.086,0.964c-0.138,0.081-0.249-0.011-0.267-0.087c-0.016-0.183-0.282-1.57-0.312-1.573&#10;&#9;&#9;c-0.095-0.455-0.072-1.217-0.075-1.188c-0.028-0.002-0.086-0.059-0.095,0.046c-0.017,0.184-0.034,0.367-0.05,0.55&#10;&#9;&#9;c-0.001,0.095-0.063,0.123-0.086,0.123c-0.089,0.004-0.143-0.027-0.177-0.228c-0.005-0.568-0.021-1.03-0.025-1.6&#10;&#9;&#9;c0-0.037-0.014-0.125-0.102-0.03c-0.142,0.128-0.157,0.526-0.171,0.833c-0.002,0.053-0.112,0.119-0.156,0.1&#10;&#9;&#9;c-0.36-0.164-0.408-0.546-0.434-0.548c-0.062-0.171,0.033-0.244-0.058-0.369c-0.31-0.393-0.389-0.459-0.729-0.974&#10;&#9;&#9;c-0.232-0.33-0.22-0.328-0.484-0.68c0.036-0.723,0.071-1.447,0.106-2.17c0.057-0.148,0.212-0.169,0.271,0.025&#10;&#9;&#9;c-0.088,0.787-0.097,1.412,0.075,1.994c0.067,0.171,0.197,0.184,0.226-0.004c0.055-0.729,0.091-0.867,0.176-1.22&#10;&#9;&#9;c0.063-0.107,0.131-0.076,0.18,0.017c0.021,0.122,0.038,0.245,0.058,0.368c0.058,0.345,0.309,0.7,0.307,1.114&#10;&#9;&#9;c0.023,0.143,0.203,0.124,0.226-0.003c0.038-0.53-0.077-0.829,0.115-1.234c0.07-0.027,0.063-0.063,0.155-0.043&#10;&#9;&#9;c0.137,0.141,0.331,0.408,0.447,0.301c0.175-0.093,0.188-0.232,0.051-0.462C49.939,29.32,50,28.94,50.175,28.825&#10;&#9;&#9;c0.376-0.23,0.741-0.08,0.901,0.081c0.098,0.135,0.11,0.243,0.027,0.389c-0.067,0.098-0.142,0.127-0.198,0.134&#10;&#9;&#9;c-0.022,0.003-0.077,0.072-0.086,0.103c-0.116,0.456-0.018,0.559,0.065,0.902c0.046,0.111,0.1,0.175,0.203,0.121&#10;&#9;&#9;c0.266-0.103,0.439-0.152,0.736,0.145c0.214,0.182,0.098,0.916,0.074,1.188c0.033,0.156,0.162,0.179,0.18,0.017&#10;&#9;&#9;c0.022-0.24,0.044-0.481,0.065-0.72c0.106-0.165,0.159-0.22,0.469-0.14c0.258,0.186,0.363,0.338,0.409,0.491&#10;&#9;&#9;c0.057,0.189-0.039,0.729,0.009,0.91c0.029,0.091,0.067,0.071,0.09,0.008c0.021-0.279,0.07-0.461,0.148-0.622&#10;&#9;&#9;c0.027-0.078,0.128-0.127,0.277-0.066c0.152,0.131,0.373,0.186,0.297,0.753c-0.01,0.09,0.035,0.275,0.064,0.279&#10;&#9;&#9;c0.002,0.041,0.096,0.048,0.099-0.083c0.008-0.088,0.091-0.38,0.221-0.433c0.066-0.023,0.103-0.032,0.182,0.016&#10;&#9;&#9;c0.292,0.187,0.484,0.275,0.653,0.503c0.073,0.101,0.166,0.256,0.158,0.345c0.037,0.111,0.175,0.158,0.198,0.06&#10;&#9;&#9;c0.016-0.179,0.108-0.535,0.139-0.532c0.104-0.231,0.197-0.84,0.099-1.081c-0.184-0.458-0.413-0.787-1.021-1.625&#10;&#9;&#9;c-0.007-0.006-0.012-0.011-0.014-0.013c-0.53-0.684-0.828-1.053-1.469-1.859c-0.43-0.462-0.422-0.652-0.337-1.302&#10;&#9;&#9;c0.008-0.122,0.083-0.315-0.229-0.475c-0.387-0.211-3.057-1.86-3.618-2.235c0.004-0.03-3.558-2.017-4.618-2.234&#10;&#9;&#9;c-0.039,0.087-0.054,1.267-0.024,1.27c0,0.334,0.001,0.667,0,0.999c0.431,0.464,0.56,0.76,0.788,1.343&#10;&#9;&#9;c0.17,0.754-0.642,1.395-0.671,1.393c-0.004,0.363-0.022,0.587-0.025,0.95c-0.031,0.21-0.398,0.354-0.517,0.083&#10;&#9;&#9;c-0.016-0.188-0.232-0.529-0.229-0.559c-0.089-0.12-0.226-0.181-0.371,0.058c-0.057,0.359-0.533,0.848-0.564,1.222&#10;&#9;&#9;c0.013,0.256,0.144,0.991-0.032,1.358c-0.031-0.002-0.664,1.064-0.918,1.514c-0.146,0.193-0.258,0.417-0.393,0.619&#10;&#9;&#9;c-0.025,0.035-0.171,0.111-0.219,0.114c-0.104,0.008-0.208,0.021-0.313,0.024c-0.06,0.001-0.12,0.038-0.144,0.088&#10;&#9;&#9;c-0.015,0.032-0.037,0.059-0.056,0.09c-0.313,0.413-0.699,0.027-0.73,0.024c-0.062-0.079-0.065-0.175,0.034-0.359&#10;&#9;&#9;c0.122-0.263,0.41-0.857,0.416-0.917c0.842-1.462,1.285-2.318,2.185-4.107c0.094-0.207,0.147-0.542,0.177-0.538&#10;&#9;&#9;c0.058-0.199,0.062-0.306,0.131-0.442c0.146,0.042,0.288,0.016,0.383,0.058c0.11,0.049,0.217,0.357,0.309,0.403&#10;&#9;&#9;c0.204,0.159,0.453,0.182,0.656,0.013c0.201-0.154,0.544-0.622,0.209-1.107c-0.073-0.225-0.494-0.404-0.751-0.203&#10;&#9;&#9;c-0.181,0.118-0.26,0.299-0.394,0.396c-0.205,0.013-0.346-0.001-0.642-0.035c-1.044-0.949-2.498-1.247-3.149-1.375&#10;&#9;&#9;c-1.075-0.158-2.29-0.221-2.995-0.082c0.015-0.151,0.021-0.217,0.033-0.367c0.192-0.23,0.205-0.369,0.745-0.451&#10;&#9;&#9;c0.821-0.043,1.688,0.07,2.553,0.204c0.499,0.096,1.389,0.354,2.528,0.848c0.382,0.223,0.575,0.182,0.843,0.093&#10;&#9;&#9;c0.335-0.152,0.313-0.308,0.353-0.877c-0.022-0.542-0.127-1.462-0.623-2.146c-0.521-0.627-0.609-0.718-1.24-1.384&#10;&#9;&#9;c-0.694-0.648-1.134-1.019-1.861-1.531c-0.221-0.13-0.396-0.312-0.977-0.271c0.024,0.489,0.106,0.516,0.251,0.865&#10;&#9;&#9;c0.109,0.623,0.302,0.984,0.518,1.607c0.038,0.118-0.032,0.233-0.111,0.313c-0.15-0.041-0.209-0.046-0.36-0.032&#10;&#9;&#9;c-0.278-0.502-0.569-0.955-0.968-1.36c-0.587-0.477-0.866-0.667-1.453-1.04c-0.441-0.288-1.176-0.788-1.559-0.868&#10;&#9;&#9;c0.03,0.139,0.029,0.151,0.147,0.377c0.494,0.078,1.499,0.759,1.968,1.605c0.35,0.712,0.393,0.876,0.701,2.088&#10;&#9;&#9;c-0.091,0.049-0.161,0.043-0.271-0.025c0.001-0.031-0.475-1.179-0.756-1.704c-0.348-0.515-0.932-1.536-1.575-1.687&#10;&#9;&#9;c0.005,0.208,0.007,0.138,0.057,0.368c0.102,0.317,0.232,0.694,0.437,1.221c0.279,0.819,0.689,1.766,1.509,2.408&#10;&#9;&#9;c0.045,0.147,0.071,0.256-0.041,0.45c-0.751,0.059-1.178,0.836-1.188,1.074c-0.017,0.18-0.033,0.36-0.049,0.541&#10;&#9;&#9;c-0.253,0.72-0.805,1.309-1.353,1.876c-0.419,0.35-1.083,0.887-1.313,1.425c-0.146,0.346-0.032,0.948-0.015,1.18&#10;&#9;&#9;c0.039,0.498-0.185,1.604-0.352,1.875c-0.447,0.671-0.749,1.117-1.214,2.343c-0.136,0.15-0.336,0.05-0.558,0.131&#10;&#9;&#9;c-0.373,0.196-0.668,0.441-0.673,1.394c0.268,0.295-0.608,1.5-1.213,2.342c-0.811,1.183-1.085,1.595-1.435,2.776&#10;&#9;&#9;c-0.331,0.97,0.064,1.69,0.344,2.153c0.29,0.465,0.714,0.88,0.913,1.049c-0.065,0.176-0.052,0.152-0.124,0.354&#10;&#9;&#9;c-0.073,0.483,0.418,0.424,0.6,0.415c0.122-0.019,0.246-0.038,0.369-0.056c0.023,0.74,1.086,0.934,1.665,0.695&#10;&#9;&#9;c0.272-0.112,0.496-0.26,0.655-0.213c0.342,0.344,1.217,0.754,1.104,0.426c-0.269-0.137-0.388-0.26-0.599-0.52&#10;&#9;&#9;c-0.014-0.016-0.06-0.1-0.068-0.125c-0.087-0.254-0.006-0.482,0.204-0.812c0.355-0.562,0.602-0.995,0.851-1.376&#10;&#9;&#9;c0.147-0.331,0.231-0.523,0.239-0.614c0.011-0.144-0.013-0.279-0.05-0.459c-0.047-0.249,0.132-1.037,0.909-1.006&#10;&#9;&#9;c0.027-0.384,0.003-0.405-0.205-0.747c-0.088-0.264-0.133-0.473-0.008-0.908c0.088-0.335,0.635-0.805,1.066-0.721&#10;&#9;&#9;c0.042,0.089,0.044,0.208-0.03,0.332c-0.104,0.013-0.149,0.013-0.237,0.049c-0.557,0.346-0.449,0.907-0.241,1.209&#10;&#9;&#9;c0.279,0.32,0.702,0.489,1.066,0.278c0.205-0.188,0.27-0.241,0.418-0.598c0.213,0.037,0.22,0.057,0.353,0.123&#10;&#9;&#9;c-0.067,0.176-0.435,0.722-0.713,0.844c-0.171,0.091-0.327,0.11-0.558,0.131c-0.08,0.024-0.088,0.154-0.018,0.179&#10;&#9;&#9;c0.767,0.084,0.927,0.534,0.912,0.991c-0.014,0.111-0.01,0.104-0.1,0.083c-0.449-0.14-0.46-0.437-1.023-0.427&#10;&#9;&#9;c-0.021,0.001-0.123,0.04-0.146,0.058c-0.168,0.126-0.195,0.222-0.29,0.417c-0.065,0.127-0.113,0.279-0.042,0.451&#10;&#9;&#9;c0.047,0.062,0.201,0.324,0.379-0.149c0.072-0.061,0.129-0.032,0.175-0.016c0.163,0.062,0.177,0.195,0.341,0.336&#10;&#9;&#9;c0.196,0.139,0.465,0.187,0.465,0.187s6.328,2.553,13.379-0.483l0.014-0.008c0.144-0.054,0.283,0.01,0.329,0.128&#10;&#9;&#9;c0.044,0.119-0.041,0.242-0.172,0.317l-0.048,0.038c-6.348,4.271-13.041,2.693-14.363,2.316c0,0-0.021-0.968,0.283-1.234&#10;&#9;&#9;c0.302-0.308,0.467-0.01,0.6-0.581c-0.304,0.039-0.86,0.36-1.289,0.156c-0.281-0.305-0.515-0.468-0.952-0.541&#10;&#9;&#9;c-0.146,0.375-0.296,0.588-0.368,1.056c0.654,0.163,0.864,0.598,0.82,0.982c0.043,0.066,0.258,0.213,0.465,0.312l0.027,0.016&#10;&#9;&#9;c0,0,6.743,2.266,13.586-1.39l0.041-0.021c0.122-0.07,0.242-0.086,0.271-0.038c0.026,0.042-0.005,0.122-0.115,0.173l-0.015,0.013&#10;&#9;&#9;c-7.396,4.497-15.205,1.324-15.205,1.324c-0.071,0.196-0.022,0.25-0.022,0.25s8.537,3.644,16.609-2.175l0.031-0.011&#10;&#9;&#9;c0.248-0.131,0.44,0.11,0.44,0.11c0.47,0.516,1.206,1.691,2.572,5.4c0.137,0.37,0.357,0.103,0.357,0.103&#10;&#9;&#9;c1.744-1.99,2.322-4.635,2.856-6.943C57.448,37.817,56.923,35,56.729,34.154z M41.692,22.064c-0.049,0.284-0.072,0.283-0.237,0.399&#10;&#9;&#9;c-0.137,0.058-0.273,0.01-0.237-0.169c0.164-0.089,0.127-0.047,0.204-0.255C41.535,21.842,41.622,21.922,41.692,22.064z&#10;&#9;&#9; M39.49,19.056c-0.043-0.182-0.038-0.229,0.044-0.276c0.265,0.007,0.415,0.108,0.596,0.287c0.099,0.079,0.287,0.226,0.499,0.495&#10;&#9;&#9;c-0.005,0.054-0.031,0.218,0.017,0.333c0.031,0.074,0.164,0.156,0.208,0.195c0.187,0.16,0.592,0.634,0.652,0.639&#10;&#9;&#9;c0.089,0.187,0.064,0.338,0.014,0.379c-0.133,0.012-0.166-0.003-0.246-0.046c-0.085-0.124-0.601-0.747-0.704-0.844&#10;&#9;&#9;c0.003-0.029-0.378-0.318-0.402-0.381C39.917,19.572,39.739,19.321,39.49,19.056z M37.921,20.167&#10;&#9;&#9;c-0.091-0.008-0.095-0.033-0.141-0.093c-0.052-0.098-0.074-0.189-0.066-0.279c0.019-0.153,0.134-0.12,0.233-0.051&#10;&#9;&#9;c-0.003,0.03,0.074,0.147,0.104,0.151C38.104,20.056,38.061,20.191,37.921,20.167z M38.01,22.548&#10;&#9;&#9;c0.704-0.338,0.72-1.086,1.911-1.008c0.111,0.026,0.089,0.023,0.172,0.107c-0.111,0.481-0.116,0.67-0.09,0.991&#10;&#9;&#9;c0,0-0.14,0.062-0.114,0.262c0.11,0.081,0.103,0.164,0.065,0.278c-0.661-0.06-1.323-0.119-1.984-0.179&#10;&#9;&#9;C37.879,22.849,37.867,22.718,38.01,22.548z M35.225,43.614c-0.177-0.016-0.298-0.246-0.272-0.515&#10;&#9;&#9;c0.024-0.27,0.186-0.474,0.36-0.458c0.176,0.016,0.298,0.246,0.272,0.515C35.562,43.426,35.399,43.629,35.225,43.614z&#10;&#9;&#9; M50.948,37.344c0.047,0.415,0.234,0.545,0.204,1.077c-0.069,0.112-0.271,0.129-0.33-0.02c-0.035-0.382-0.146-0.564-0.152-0.992&#10;&#9;&#9;C50.799,37.23,50.879,37.249,50.948,37.344z M48.414,36.206c0.18-0.134,0.231-0.059,0.271,0.026&#10;&#9;&#9;c-0.084,0.265-0.169,0.529-0.254,0.794c-0.165,0.058-0.177,0.056-0.271-0.024C48.184,36.679,48.411,36.237,48.414,36.206z&#10;&#9;&#9; M47.798,34.971c0.537-0.081,0.094,0.889,0.089,0.919c-0.176,0.125-0.313,0.078-0.35-0.034&#10;&#9;&#9;C47.622,35.56,47.711,35.265,47.798,34.971z M47.559,34.283c0,0,0.092-0.061,0.107,0.058c0.022,0.193-0.109,0.366-0.109,0.366&#10;&#9;&#9;s-0.177,0.145-0.181-0.09C47.371,34.383,47.559,34.283,47.559,34.283z M47.009,27.631c0.111-0.113,0.143-0.063,0.18,0.017&#10;&#9;&#9;c0.031,0.287,0.091,1.141-0.022,1.27c-0.019,0.128-0.069,0.056-0.119,0.059C46.784,28.762,46.952,28.092,47.009,27.631z&#10;&#9;&#9; M46.903,33.799c0.155-0.125,0.178,0.019,0.172,0.106c-0.008,0.091-0.03,0.314-0.04,0.406c-0.043,0.101-0.146,0.187-0.197-0.03&#10;&#9;&#9;C46.848,34.16,46.895,33.919,46.903,33.799z M46.362,32.75c0.029,0.003,0.168-0.042,0.164-0.012&#10;&#9;&#9;c0.121,0.156-0.055,0.576-0.089,0.856c-0.083,0.134-0.233,0.097-0.228-0.104C46.27,33.193,46.305,33.049,46.362,32.75z&#10;&#9;&#9; M44.629,31.608c-0.083,0.265-0.557,0.388-0.621,0.021c-0.142-0.191-0.083-1.149-0.041-1.548c0.208-0.252,0.481-0.156,0.598,0.008&#10;&#9;&#9;C44.705,30.516,44.662,31.329,44.629,31.608z M44.633,35.774c-0.248,0.104-0.169,0.145-0.559,0.131&#10;&#9;&#9;c-0.267-0.219-0.136-1.817,0.008-2.088c0.06-0.112,0.214-0.25,0.558-0.131C44.928,33.93,44.728,35.443,44.633,35.774z&#10;&#9;&#9; M43.999,28.722c0.128-0.198,0.388-0.069,0.449,0.04c0.032,0.349,0.031,0.193-0.06,0.53c-0.151,0.093-0.339,0.077-0.444-0.063&#10;&#9;&#9;C43.921,28.881,43.866,29.056,43.999,28.722z M42.105,32.547c0.249-0.402,0.497-0.803,0.747-1.204&#10;&#9;&#9;c0.088-0.064,0.137-0.061,0.18,0.016c-0.04,0.203-0.282,0.458-0.32,0.517c-0.021,0.196-0.626,1.214-0.664,1.302&#10;&#9;&#9;c-0.089,0.047-0.183,0.038-0.172-0.104C41.961,32.918,42.061,32.726,42.105,32.547z M41.118,35.833&#10;&#9;&#9;c0.046-0.114,0.083-0.134,0.19-0.267c0.307-0.125,0.214,0.093,0.202,0.244c-0.128,0.079-0.108,0.183-0.237,0.262&#10;&#9;&#9;C41.168,36.074,41.026,36.061,41.118,35.833z M40.794,36.971c0.329-0.143,0.459-0.273,0.542-0.018&#10;&#9;&#9;c-0.101,0.154-0.11,0.16-0.259,0.248c-0.137,0.051-0.33,0.231-0.405,0.122C40.644,37.139,40.688,37.048,40.794,36.971z&#10;&#9;&#9; M40.163,33.916c-0.04,0.088-0.077,0.175-0.115,0.263c-0.076,0.06-0.169,0.052-0.181-0.017c0.037-0.213,0.058-0.22,0.123-0.353&#10;&#9;&#9;C40.134,33.745,40.163,33.831,40.163,33.916z M32.271,32.657c0.261-0.522,0.839-1.56,0.868-1.557&#10;&#9;&#9;c0.217-0.322,0.343-0.524,0.443-0.869c0.044-0.813,0.087-1.628,0.131-2.44c0.052-0.207,0.142-0.41,0.467-0.736&#10;&#9;&#9;c0.191-0.214,0.793-0.545,0.838-0.6c0.849-0.75,1.063-1.298,1.459-2.047c0.24,0.021,0.828-0.074,1.549-0.042&#10;&#9;&#9;c0.562,0.049,0.775,0.055,1.255,0.204c0.082,0.197,0.131,0.173,0.141,0.467c-0.143,0.093-0.195,0.153-0.288,0.302&#10;&#9;&#9;c0.02,0.04,0.022,0.063,0.067,0.132c0.132,0.425,0.351,0.321,0.376,0.851c-0.321,0.216-0.358,0.468-0.314,0.874&#10;&#9;&#9;c0.1,0.103,0.255,0.117,0.398,0.013c0.271-0.146,0.198-0.489,0.71-0.507c0.291,0.074,0.334,0.296,0.217,0.53&#10;&#9;&#9;c-0.143,0.117-0.161,0.349-0.222,0.564c-0.167,0.009-0.308,0.113-0.443,0.226c-0.266-0.009-0.483-0.058-0.795-0.041&#10;&#9;&#9;c-0.048,0.198,0.055,0.238-0.288,0.454c-0.234-0.049-0.516-0.043-0.848-0.01c-0.092,0.149-0.136,0.285-0.005,0.388&#10;&#9;&#9;c0.187,0.192,0.338,0.119,0.409,0.491c0.281,0.2,0.487,0.328,0.871,0.442c-0.013,0.293,0.083,0.443,0.312,0.573&#10;&#9;&#9;c0.081,0.258,0.062,0.474-0.073,0.811c-0.416,0.723-0.743,1.294-1.083,1.901c-0.407,0.492-0.71,1.059-1.353,0.876&#10;&#9;&#9;c0.06-0.789,0.406-0.994,0.598-1.582c0.015-0.14-0.143-0.237-0.282-0.227c-0.271-0.047-0.341-0.213-0.579-0.305&#10;&#9;&#9;c0.064-0.455,0.173-0.693-0.196-0.834c-0.103,0.418-0.326,0.872-0.476,1.229c-0.079,0.182-0.07,0.336-0.049,0.54&#10;&#9;&#9;c-0.193,0.254-0.28,0.435-0.434,0.778c-0.194,0.378-0.246,0.921-0.878,0.648c-0.812-0.65-1.882-0.989-2.436-1.221&#10;&#9;&#9;C32.266,32.891,32.201,32.814,32.271,32.657z M36.979,35.625c-0.04,0.055-0.104,0.097-0.166,0.008&#10;&#9;&#9;c0.008-0.089,0.02-0.111,0.027-0.201c0.054-0.04,0.061,0.005,0.091,0.009C36.95,35.467,36.971,35.469,36.979,35.625z M36.423,35.03&#10;&#9;&#9;c-0.092,0.038-0.212,0.076-0.398-0.096c-0.042-0.081-0.051-0.146,0.011-0.248c0.142-0.112,0.176-0.103,0.33-0.025&#10;&#9;&#9;C36.432,34.771,36.508,34.954,36.423,35.03z M31.873,44.067c-0.152,0.176-0.916,0.368-1.279,0.064&#10;&#9;&#9;c-0.161-0.182-0.095-0.258-0.049-0.459c0.152-0.016,0.298-0.06,0.467-0.139c0.33-0.047,0.263,0.178,0.345,0.213&#10;&#9;&#9;c0.184-0.014,0.366-0.027,0.55-0.043C31.896,43.827,31.884,43.948,31.873,44.067z M33.782,36.064&#10;&#9;&#9;c-0.217-0.016-0.104,0.511-0.246,0.705c-0.229,0.167-0.398,0.341-0.885,0.736c-0.272,0.27-0.312,0.313-0.489,0.569&#10;&#9;&#9;c-0.092,0.099-0.128,0.237-0.178,0.588c-0.084,0.521-0.257,1.46-0.291,1.841c-0.24,0.949-0.637,1.918-1.72,1.844&#10;&#9;&#9;c-0.786-0.07-0.629-1.795-1.062-1.727c0.048,0.251,0.026,0.368-0.049,0.539c-0.194-0.078-0.311-0.1-0.517-0.048&#10;&#9;&#9;c-0.1-0.341-0.253-0.475,0.098-1.73c0.205-0.693,0.628-1.315,0.919-1.719c0.262-0.327,0.937-1.105,1.467-2.138&#10;&#9;&#9;c0.207-0.284,0.362-0.508,0.57-0.791c0.688,0.078,1.336,0.247,2.514,0.888C33.918,35.832,33.872,35.934,33.782,36.064z&#10;&#9;&#9; M36.514,38.037c-0.026-0.064-0.165-0.198-0.165-0.198c0.116-0.453,0.055-0.825,0.055-0.825c-2.257-2.219-4.47-2.604-5.193-2.669&#10;&#9;&#9;l-0.124-0.027c-0.06-0.042-0.112-0.114-0.126-0.235c-0.006-0.187,0.111-0.424,0.319-0.516c0.349-0.178,0.747-0.316,1.178-0.3&#10;&#9;&#9;l0.058,0.014c2.711,1.062,4.253,2.963,4.253,2.963c0.104,0.046,0.178,0.017,0.279-0.066c0.476-0.788,0.853-1.274,1.147-1.622&#10;&#9;&#9;c0.176-0.175,0.495-0.298,0.658-0.353c0.063-0.021,0.109-0.128,0.091-0.211c-0.036-0.167-0.114-0.73,0.275-0.707&#10;&#9;&#9;c0.277-0.354-0.079-0.511,0.591-0.489c0.234,0.137,0.125,0.349-0.015,0.529c-0.031-0.002-0.103,0.095-0.133,0.092&#10;&#9;&#9;c-0.104,0.188,0.07,0.259,0.058,0.369c-0.03-0.003-0.188,0.406-0.238,0.614c0.281,0.1,0.252,0.129,0.23,0.475&#10;&#9;&#9;c-0.411,0.5-0.44,0.567-0.759,1.059c-0.323,0.443-0.706,1.049-0.709,1.081c-0.308-0.048-0.287,0.155-0.295,0.246&#10;&#9;&#9;c0.089,0.011,0.122,0.037,0.172,0.106c0.14,0.587-0.078,0.638-0.344,0.786c-0.127,0.074-0.216,0.081-0.369,0.058&#10;&#9;&#9;C37.202,37.977,36.907,38.057,36.514,38.037z M38.868,38.693c-0.029,0.33-0.256,0.58-0.507,0.557&#10;&#9;&#9;c-0.249-0.022-0.427-0.308-0.396-0.639c0.029-0.331,0.256-0.58,0.506-0.558C38.722,38.077,38.899,38.362,38.868,38.693z&#10;&#9;&#9; M37.195,40.551c0.193-0.301,0.521-0.637,0.804-0.835c0.06,0.006,0.348,0.03,0.676-0.188c0.456-0.353,0.609-0.571,0.891-1.033&#10;&#9;&#9;c0.933-0.258,1.866-0.233,2.812-0.925c0.429-0.376,0.776-0.704,1.14-1.034c0.061,0.006,0.498-0.014,0.788-0.155&#10;&#9;&#9;c0.327-0.134,0.719-0.382,0.968-0.639c0.283,0.085,0.518,0.241,0.688,0.426c0.061,0.053,0.303,0.249,0.429,0.311&#10;&#9;&#9;c0.134,0.194,1.259,1.477,1.557,1.867c0.251,0.299,1.135,1.438,1.26,1.656c0.32,0.415-0.119,0.624-0.119,0.624&#10;&#9;&#9;c-5.382,2.34-10.681,0.802-11.816,0.423C37.271,41.047,36.923,40.954,37.195,40.551z M49.961,40.949l-0.227,0.168&#10;&#9;&#9;c0,0-0.133,0.079-0.162,0.09c-6.041,2.436-11.471,0.809-12.716,0.372l-0.059-0.021c-0.333-0.125,0.006-0.338,0.238-0.286&#10;&#9;&#9;c0.187,0.041,0.271,0.078,0.271,0.078c1.292,0.423,6.783,1.954,12.196-0.609c0.019-0.009,0.087-0.063,0.087-0.063l0.083-0.096&#10;&#9;&#9;c0.104-0.126,0.129-0.201,0.284-0.328c0.259-0.132,0.333-0.148,0.574-0.312c0.175-0.091,0.351-0.254,0.451-0.363&#10;&#9;&#9;c0.015-0.017,0.075-0.067,0.094-0.078c0.207-0.121,0.413-0.241,0.619-0.362c0.04-0.02,0.063-0.012,0.09,0.008&#10;&#9;&#9;c0.076,0.096,0.047,0.113-0.004,0.224c-0.007,0.014-0.05,0.067-0.063,0.076c-0.18,0.125-0.359,0.249-0.539,0.372&#10;&#9;&#9;c-0.176,0.104-0.484,0.319-0.484,0.319C50.481,40.354,50.169,40.715,49.961,40.949z M56.348,41.06&#10;&#9;&#9;c-0.477,2.057-1.021,4.356-2.329,6.271c-0.264,0.387-0.424-0.072-0.424-0.072c-1.07-2.793-1.913-4.188-2.344-4.794l-0.076-0.125&#10;&#9;&#9;c-0.053-0.208,0.049-0.412,0.095-0.513c0.07-0.093,0.227-0.347,0.271-0.496c0.076-0.078-0.05-0.111-0.13,0&#10;&#9;&#9;c-0.06,0.074-0.282,0.432-0.561,0.553c-0.048,0.02-0.13,0.015-0.097-0.115c0.524-0.281,0.146-0.295,0.178-0.565&#10;&#9;&#9;c0.006-0.038,0.158-0.126,0.231-0.205c0.038-0.101,0.081-0.191,0.115-0.262c0.23-0.354,0.368-0.579,0.73-1.024&#10;&#9;&#9;c0.203-0.295,0.406-0.573,0.523-0.769c0.132-0.196,0.129-0.414,0.14-0.533c0.104-0.193,0.648-0.65,0.993-0.826&#10;&#9;&#9;c0.284-0.163,0.136,0.265,0.136,0.265c-0.434,0.874-0.969,1.685-1.473,2.356c-0.056,0.077-0.303,0.352-0.34,0.386&#10;&#9;&#9;c-0.117,0.109-0.141,0.189-0.242,0.308c-0.139,0.244-0.045,0.375,0.533-0.164c0.295-0.353,0.388-0.089,0.395-0.062&#10;&#9;&#9;c0.056,0.28,0.093,0.446,0.15,0.726c0.038,0.121,0.178,0.263,0.201,0.13c0.041-0.118-0.037-1.175-0.071-1.583&#10;&#9;&#9;c0,0-0.062-0.185,0.022-0.343l0.003-0.036c0.422-0.73,1.195-1.888,1.195-1.888c0.028-0.066,0.056-0.134,0.083-0.202&#10;&#9;&#9;c0.047-0.108,0.213-0.413,0.317-0.548c0.227-0.289,0.624-0.801,0.884-1.175c0.068-0.079,0.352-0.368,0.507-0.543&#10;&#9;&#9;c0.237-0.237,0.561-0.138,0.644,0.199C56.929,36.71,56.872,38.79,56.348,41.06z"/><path fill="#16284C" d="M42.253,6.676C22.408,6.679,6.321,22.746,6.325,42.562c0.001,19.817,16.089,35.883,35.936,35.882&#10;&#9;&#9;c19.843-0.003,35.929-16.068,35.927-35.888C78.186,22.738,62.098,6.675,42.253,6.676z M42.26,75.256&#10;&#9;&#9;C24.175,75.258,9.516,60.622,9.514,42.562C9.513,24.505,24.172,9.864,42.253,9.862C60.335,9.86,74.998,24.499,74.998,42.556&#10;&#9;&#9;C74.999,60.616,60.342,75.254,42.26,75.256z"/><path fill="#16284C" d="M72.793,44.227c-0.062-0.005-0.771-0.525-0.771-0.525c-0.062-0.006-0.589-0.548-0.613-0.61&#10;&#9;&#9;c-0.102-0.056-0.204-0.1-0.322-0.11c-0.253-0.106-1.322-0.007-1.46,0.05c-0.15,0.076-1.427,0.705-1.526,0.769&#10;&#9;&#9;c-0.566,0.219-0.788,0.316-1.419,0.6c-0.378,0.135-1.578,0.568-1.977,0.729c-0.204,0.082-1.236,0.521-1.456,0.604&#10;&#9;&#9;c-0.54,0.18-0.371-0.254-0.371-0.254c0.873-2.307,1.389-5.169,1.387-8.27c0,0,0.592-7.958-6.056-14.891&#10;&#9;&#9;c-0.524-0.545-1.029-1.104-1.71-1.614c-0.204-0.151-0.559-0.454-0.822-0.588c-0.255-0.128-0.704-0.206-0.92,0.003&#10;&#9;&#9;c0,0-0.211,0.216-0.351,0.473c-0.125,0.23-0.068,0.613,0,0.655l0.054,0.041c0.871,0.731,1.644,1.484,2.328,2.25l0.008,0.028&#10;&#9;&#9;c0.112-0.012,0.225-0.024,0.337-0.035c0.041-0.006,0.176,0.043,0.202,0.071c0.139,0.15,0.271,0.311,0.409,0.459&#10;&#9;&#9;c0.027,0.029,0.073,0.171,0.07,0.214c-0.015,0.189-0.065,0.198-0.083,0.395l0.072,0.095c1.743,2.275,2.775,4.6,3.382,6.675&#10;&#9;&#9;l0.003,0.021c0.239,0.027,0.396,0.039,0.522,0.111c0.05,0.026,0.152,0.179,0.157,0.228c0.026,0.287,0.079,0.573,0.053,0.907&#10;&#9;&#9;c-0.042,0.157-0.261,0.25-0.326,0.273l-0.012,0.056c0.664,3.214,0.34,5.513,0.34,5.513c-0.143,2.5-0.629,4.821-1.362,6.795&#10;&#9;&#9;l-0.026,0.043c0.191,0.062,0.229,0.175,0.21,0.295c-0.046,0.189-0.125,0.352-0.141,0.537c-0.004,0.054-0.025,0.207-0.053,0.238&#10;&#9;&#9;c-0.034,0.041-0.077,0.082-0.102,0.092c-0.159,0.08-0.316,0.16-0.476,0.242l-0.076,0.11c-0.182,0.369-0.369,0.724-0.569,1.056&#10;&#9;&#9;c0,0-0.176,0.332-0.471,0.197c-0.297-0.132-0.038-0.628-0.038-0.628c1.365-2.335,2.28-5.301,2.575-8.553&#10;&#9;&#9;c0,0,1.47-10.496-7.049-16.88c-0.057-0.042-0.207-0.112-0.254-0.067c-0.16,0.157-0.434,0.725,0.343,2.676l0.025,0.03&#10;&#9;&#9;c3.727,3.663,5.256,8.368,4.643,14.477c0,0-0.674,6.039-3.788,10.251c0,0-0.282,0.4-0.531,0.529l-6.028,2.6&#10;&#9;&#9;c-0.369,0.156-0.538-0.146-0.538-0.146c-1.014-1.635-2.758-2.791-4.822-2.978c-2.426-0.219-4.67,0.943-5.896,2.859&#10;&#9;&#9;c-0.243,0.381-0.604,0.115-0.604,0.115c-2.294-1.002-4.59-2.004-6.885-3.005c-0.382-0.179-0.608-0.642-0.608-0.642&#10;&#9;&#9;c-1.619-2.41-7.609-12.528-0.896-22.611l0.028-0.035c0.253-0.402,0.773-0.766,1.079-0.958c0.143-0.089,0.318-0.408,0.351-0.541&#10;&#9;&#9;c0.219-0.929,0.056-1.837,0.056-1.837c-0.138-0.622-0.555-0.31-0.555-0.31c-10.353,10.144-5.105,21.912-3.724,24.542&#10;&#9;&#9;c0.01,0.018,0.021,0.035,0.028,0.054c0.238,0.541-0.301,0.299-0.301,0.299c-0.503-0.229-1.617-1.002-1.131-1.47&#10;&#9;&#9;c0.082-0.049,0.227-0.084,0.188-0.182L24.5,45.637c0,0-2.721-5.215-1.663-11.942l-0.021-0.077c-0.101-0.177-0.245-0.248-0.31-0.425&#10;&#9;&#9;c-0.016-0.04,0.015-0.21,0.04-0.27c0.062-0.141,0.093-0.382,0.126-0.544c0.013-0.057,0.113-0.156,0.147-0.164&#10;&#9;&#9;c0.104-0.022,0.23-0.037,0.32-0.073l0.024-0.077c0.543-2.219,1.524-4.561,3.155-6.907l0.073-0.121&#10;&#9;&#9;c-0.003-0.148-0.048-0.246-0.081-0.385c-0.016-0.069,0.016-0.253,0.065-0.312c0.133-0.203,0.2-0.292,0.316-0.437&#10;&#9;&#9;c0.058-0.075,0.184-0.078,0.235-0.074c0.095,0.004,0.181,0.042,0.315,0.055l0.028-0.001c0.632-0.791,1.342-1.578,2.139-2.359&#10;&#9;&#9;c0.012-0.011,0.024-0.023,0.036-0.035c0.084-0.094,0.2-0.214,0.112-0.395c-0.118-0.239-0.391-0.551-0.391-0.551&#10;&#9;&#9;c-0.519-0.543-1.309,0.115-1.309,0.115c-10.328,9.457-7.03,21.584-6.014,24.542c0.005,0.012,0.008,0.024,0.012,0.034&#10;&#9;&#9;c0.262,0.527-0.213,0.41-0.213,0.41c-0.244-0.037-0.655-0.119-0.901-0.226c0.003-0.029-4.059-1.73-4.117-1.735&#10;&#9;&#9;c-0.844-0.399-1.312-0.596-2.544-1.047c-0.637-0.35-0.98-0.507-1.87-0.442c-0.216,0.114-0.435,0.19-0.553,0.493&#10;&#9;&#9;c-0.025,0.068-0.115,0.447-0.124,0.549c-0.029,0.3,0.036,0.597,0.137,0.908c0.015,0.283,0.076,1.157,0.058,1.368&#10;&#9;&#9;c-0.005,0.326,0.203,0.771,0.361,1.031c0.084,0.156,0.27,0.375,0.409,0.523c0.073,0.081,0.145,0.309,0.123,0.415&#10;&#9;&#9;c-0.076,0.36-0.221,0.906-0.245,0.904c-0.263,0.717-0.063,1.526,0.124,1.646c0.24,0.252,0.563,0.352,0.81,0.245&#10;&#9;&#9;c0.144-0.097,0.337-0.17,0.475-0.22c0.103-0.036,0.713-0.025,0.86-0.014c0.043,0.006,0.215-0.059,0.246-0.131&#10;&#9;&#9;c0.166-0.371,0.128-0.842,0.102-1.289c-0.209-1.008-0.438-1.619-0.977-2.27c-0.195-0.27-0.473-0.677-0.462-1.119&#10;&#9;&#9;c0.071-0.123,0.185-0.22,0.479-0.061c0.219,0.242,0.7,0.307,0.697,0.336c0.649,0.234,1.669,0.621,2.724,1.064&#10;&#9;&#9;c0.5,0.166,2.096,0.858,3.593,1.506c0.248,0.115,0.827,0.14,1.082,0.098c0,0,0.273-0.006,0.271,0.023&#10;&#9;&#9;c0.711,0.063,0.997,0.516,0.997,0.516c0.55,1.188,3.201,6.324,9.52,10.094c0,0,0.454,0.303-0.065,0.512&#10;&#9;&#9;c-0.058-0.005-1.48,0.631-2.775,1.198c-1.068,0.424-2.329,0.942-2.333,0.974c-0.29,0.121-0.51,0.211-0.918,0.1&#10;&#9;&#9;c0.002-0.031-2.513-1.379-2.511-1.41c-0.345-0.221-0.709-0.323-1.238-0.383c-0.359-0.004-0.717,0.283-0.846,0.518&#10;&#9;&#9;c-0.128,0.238-0.291,0.598-0.022,1.037c0.121,0.217,0.265,0.369,0.409,0.492c0.073,0.064,1.147,0.99,1.264,1.029&#10;&#9;&#9;c0.025,0.064,1.715,1.181,1.979,1.354c0.547,0.323,0.917,0.546,1.798,1.025c0.782,0.433,1.593,0.974,2.226,0.666&#10;&#9;&#9;c0.116-0.043,0.635-0.604,0.486-1.283c-0.075-0.253-0.171-0.367-0.402-0.58c-0.415-0.361-1.146-0.695-1.247-1.294&#10;&#9;&#9;c0.015-0.116,0.106-0.17,0.106-0.17c0.094-0.022,3.434-1.417,3.493-1.411c0.002-0.025,1.912-0.768,2.646-1.066&#10;&#9;&#9;c0.253-0.091,0.486-0.006,0.486-0.006c1.602,0.521,8.068,2.319,14.561-0.242c0,0,0.265-0.18,0.653-0.041&#10;&#9;&#9;c0.734,0.266,2.12,0.91,3.147,1.353c0.933,0.411,2.11,0.799,2.336,1.251C55.56,62.848,55.34,63,54.942,63.342&#10;&#9;&#9;c-0.473,0.395-0.733,0.646-0.91,0.888c-0.25,0.284-0.3,0.563-0.238,0.896c0.072,0.283,0.465,0.795,1.197,0.836&#10;&#9;&#9;c0.152,0,0.216-0.01,0.37-0.06c2.32-1.114,2.728-1.407,3.936-2.278c1.043-0.804,1.804-1.365,2.443-1.867&#10;&#9;&#9;c0.464-0.383,0.593-0.537,0.812-0.924c0.206-0.312,0.66-1.828-0.922-1.9c-0.387,0.095-0.802,0.354-0.951,0.458&#10;&#9;&#9;c-0.378,0.235-2.507,1.56-2.508,1.59c-0.209,0.138-0.326,0.205-0.656,0.213c-2.182-1.009-2.738-1.261-5.062-2.366&#10;&#9;&#9;c-0.044-0.066,0.152-0.207,0.152-0.207c1.139-0.766,6.037-4.287,8.894-9.967l0.026-0.045c0.055-0.079,0.376-0.084,0.376-0.084&#10;&#9;&#9;c0.694-0.09,0.948-0.146,1.523-0.332c2.341-0.881,2.916-1.088,4.904-1.918c0.775-0.27,1.894-0.711,2.149-0.623&#10;&#9;&#9;c0.116,0.123,0.132,0.264-0.117,0.611c-0.502,0.83-0.763,1.056-1.039,1.59c-0.166,0.322-0.273,0.635-0.257,0.93&#10;&#9;&#9;c0.025,0.262,0.163,0.439,0.438,0.596c-0.004,0.031,0.62,0.141,1.116,0.148c1.251,0.116,1.245-0.384,1.393-0.738&#10;&#9;&#9;c0.308-1.142,0.349-1.328,0.4-2.416c0.017-0.181,0.25-1.067,0.279-1.064c0.065-0.221,0.21-0.398,0.276-0.619&#10;&#9;&#9;C73.047,44.482,72.841,44.267,72.793,44.227z M13.623,46.461c0.303,0.441,0.58,0.916,0.807,1.386&#10;&#9;&#9;c0.025,0.002,0.267,0.911,0.236,1.547c-0.022,0.188-0.208,0.325-0.298,0.33c-0.132,0.009-0.277,0-0.471-0.017&#10;&#9;&#9;c-0.095,0-0.164-0.019-0.156-0.287c-0.062-0.564-0.122-1.078-0.312-1.573c0.006-0.062-0.309-0.604-0.395-0.671&#10;&#9;&#9;c-0.383-0.566-0.828-0.834-0.986-1.627c0.005-0.059-0.096-0.516-0.039-1.1c0.029,0.002,0.071-0.449,0.041-0.451&#10;&#9;&#9;c-0.019-0.125-0.118-0.375-0.148-0.377c-0.086-0.334-0.001-0.757,0.182-0.983c0.112-0.137,0.213-0.199,0.385-0.237&#10;&#9;&#9;c0.438-0.015,0.533,0.339,0.533,0.339c0.075,0.219,0.058,0.547-0.143,0.944c-0.333,0.299-0.214,1.424,0.07,1.665&#10;&#9;&#9;C13.26,45.767,13.41,46.064,13.623,46.461z M13.97,43.95c0,0-0.087,0.17-0.312,0.174c-0.225,0.004-0.402-0.262-0.402-0.262&#10;&#9;&#9;s-0.009-1.077,0.399-0.993C14.061,42.954,13.97,43.95,13.97,43.95z M15.288,44.567c-0.034,0.116-0.195,0.184-0.312,0.171&#10;&#9;&#9;c-0.188-0.013-0.341-0.073-0.504-0.173c-0.099-0.234-0.088-0.773-0.119-1.18c-0.021-0.184,0.045-0.25,0.139-0.239&#10;&#9;&#9;c0.146-0.002,0.291,0.101,0.389,0.13c0.151,0.061,0.229,0.143,0.254,0.204C15.162,43.484,15.358,44.14,15.288,44.567z&#10;&#9;&#9; M16.636,45.114c-0.021,0.104-0.158,0.176-0.274,0.163c-0.187-0.012-0.343-0.073-0.505-0.172c-0.179-0.278-0.146-0.771-0.119-1.179&#10;&#9;&#9;c-0.02-0.184,0.046-0.248,0.141-0.24c0.144-0.004,0.29,0.1,0.387,0.13c0.15,0.062,0.23,0.142,0.255,0.205&#10;&#9;&#9;C16.547,44.021,16.705,44.687,16.636,45.114z M17.859,45.743c-0.008,0.045-0.085,0.137-0.2,0.125&#10;&#9;&#9;c-0.188-0.013-0.344-0.074-0.505-0.173c-0.101-0.233-0.087-0.774-0.119-1.179c-0.021-0.184,0.044-0.247,0.138-0.24&#10;&#9;&#9;c0.146-0.003,0.29,0.102,0.389,0.131c0.152,0.061,0.229,0.143,0.254,0.205C17.844,44.612,17.93,45.316,17.859,45.743z&#10;&#9;&#9; M19.16,46.268c-0.107-0.004-0.519-0.016-0.814-0.159c-0.132-0.118-0.022-0.676-0.007-1.084c0.015-0.169,0.045-0.25,0.138-0.241&#10;&#9;&#9;c0.146-0.004,0.2,0.066,0.298,0.1c0.15,0.059,0.278,0.152,0.303,0.216c0.126,0.177,0.245,0.522,0.254,0.94&#10;&#9;&#9;C19.322,46.187,19.233,46.268,19.16,46.268z M20.694,46.854c-0.008,0.044-0.195,0.042-0.311,0.029&#10;&#9;&#9;c-0.188-0.012-0.422-0.049-0.547-0.237c-0.101-0.235-0.022-0.554-0.055-0.959c-0.021-0.185,0.045-0.25,0.14-0.239&#10;&#9;&#9;c0.146-0.004,0.289,0.098,0.388,0.129c0.151,0.061,0.371,0.315,0.396,0.379C20.771,46.139,20.763,46.426,20.694,46.854z&#10;&#9;&#9; M21.979,47.17c0,0-0.717,0.078-0.814-0.287c-0.098-0.362,0.013-0.779,0.013-0.779s0.585-0.064,0.998,0.471&#10;&#9;&#9;C22.176,46.575,22.409,47.139,21.979,47.17z M48.886,54.054c0.278-0.248,0.635-0.308,0.951-0.46&#10;&#9;&#9;c0.292-0.114,0.81-0.332,1.216-0.344c0.109,0.074,0.09,0.145-0.026,0.271c-0.16,0.106-1.03,0.664-1.065,0.722&#10;&#9;&#9;c-0.318,0.291-0.721,0.411-0.721,0.411c-0.34-0.03-0.397-0.44-0.348-0.603L48.886,54.054z M37.157,55.265&#10;&#9;&#9;c0.283-3.124,3.048-5.425,6.176-5.142c3.114,0.28,5.409,3.018,5.152,6.121c-1.131,0.812-3.263,1.318-5.7,1.234&#10;&#9;&#9;c-2.468-0.084-4.587-0.747-5.647-1.652C37.137,55.641,37.14,55.454,37.157,55.265z M22.918,47.526&#10;&#9;&#9;c-0.062-0.086-0.052-0.193,0.024-0.271c0.215-0.144,0.167-0.146,0.558-0.133c0.229,0.088,0.56,0.237,0.878,0.353&#10;&#9;&#9;c-0.002,0.032,5.518,2.387,5.782,2.472c1.176,0.598,6.303,2.682,6.301,2.711c0.415,0.207,0.576,0.038,0.552,0.617&#10;&#9;&#9;c-0.042,0.198-0.069,0.243-0.173,0.209c-0.351-0.054-4.618-1.832-5.088-2.07c-1.427-0.727-7.965-3.447-8.054-3.455&#10;&#9;&#9;C23.41,47.856,23.047,47.682,22.918,47.526z M22.585,61.211c-0.066-0.109-0.345-0.592,0.077-0.933&#10;&#9;&#9;c0.141-0.088,0.336-0.313,0.916,0.024C23.647,61.161,22.984,61.42,22.585,61.211z M34.265,59.816&#10;&#9;&#9;c-0.318,0.153-3.789,1.655-3.789,1.655c-0.061-0.006-1.227,0.48-1.984,0.818c-0.276,0.088-0.479,0.065-0.665,0.307&#10;&#9;&#9;c-0.134,0.195,0.971,0.947,1.428,1.308c0.386,0.328,0.805,0.421,0.812,1.074c0.012,0.241-0.138,0.713-0.615,0.763&#10;&#9;&#9;c-0.261,0.055-2.094-0.979-2.091-1.008c-0.176-0.076-1.808-1.132-1.805-1.162c-0.117-0.039-1.613-1.14-1.638-1.203&#10;&#9;&#9;c-0.412-0.334-0.519-0.246-0.484-0.93c0.263-0.154,0.382-0.297,0.479-0.715c0.159-0.066,0.164-0.256,1.013,0.188&#10;&#9;&#9;c0.201,0.137,1.436,0.795,1.434,0.825c0.298,0.206,0.611,0.399,0.877,0.353c0.196-0.076,0.18-0.061,0.378-0.148&#10;&#9;&#9;c0.349-0.173,2.302-0.973,2.361-0.966c0.003-0.03,2.77-1.113,2.829-1.106c0.084-0.045,0.563-0.195,0.762-0.387&#10;&#9;&#9;c0.324,0.025,0.515,0.061,0.715,0.157C34.369,59.682,34.338,59.774,34.265,59.816z M34.479,57.42&#10;&#9;&#9;c-0.493,0.192-1.022-0.403-1.053-0.405c-0.117-0.267,0.134-0.613-0.016-0.82c-0.483-0.397-3.561-2.044-5.988-5.346&#10;&#9;&#9;c-0.139-0.134-0.494-0.75-0.55-0.787c-0.24-0.39,0.207-0.349,0.475-0.229c2.327,3.379,5.947,5.625,5.947,5.625&#10;&#9;&#9;c0.061,0.006,1.299,0.724,1.297,0.754c0.446,0.291,0.6,0.291,0.582,0.598C35.024,57.174,34.947,57.109,34.479,57.42z&#10;&#9;&#9; M34.469,53.567c-0.139-0.096-0.067-0.223,0.023-0.271c0.53,0.17,1.879,0.783,2.306,0.664l0.044-0.002&#10;&#9;&#9;c-0.078,0.287-0.168,0.58-0.199,0.881l-0.044,0.016C35.897,54.792,35.08,53.932,34.469,53.567z M38.889,59.654&#10;&#9;&#9;c0,0-1.14-0.006-2.313-0.567c-1.172-0.563-1.064-1.207-1.064-1.207c0.023-0.066,0.104-0.07,0.104-0.07s1.567-0.021,3.336,1.523&#10;&#9;&#9;C38.95,59.333,39.155,59.547,38.889,59.654z M39.937,59.689c-1.499-1.496-2.971-1.983-2.971-1.983&#10;&#9;&#9;c-0.199-0.148,0.055-0.207,0.055-0.207s2.226,0.271,3.485,2.053l0.009,0.035C40.333,59.76,39.937,59.689,39.937,59.689z&#10;&#9;&#9; M46.27,58.297c-2.67,1.748-5.172,1.41-5.172,1.41s-0.57-1.053-2.368-2.115c0,0-0.046-0.157,0.131-0.141l0.025,0.006&#10;&#9;&#9;c1.069,0.385,2.406,0.637,3.865,0.688c1.161,0.039,3.186-0.254,3.186-0.254c0.128-0.012,0.238,0.01,0.318,0.104&#10;&#9;&#9;C46.413,58.135,46.27,58.297,46.27,58.297z M54.235,60.26c1.348,0.607,1.995,0.893,2.798,1.253&#10;&#9;&#9;c0.371,0.147,0.536,0.163,0.812,0.073c0.042-0.012,2.671-1.695,2.705-1.754c0.951-0.369,1.701,0.375,1.166,1.195&#10;&#9;&#9;c-0.33,0.305-1.539,1.285-2.452,1.958c-1.213,0.827-1.882,1.287-3.861,2.468c-0.187,0.103-0.262,0.141-0.378,0.147&#10;&#9;&#9;c-0.299-0.021-0.998-0.119-0.829-0.894c0.051-0.211,0.102-0.242,0.213-0.344c0.729-0.556,2.488-2.018,2.551-2.041&#10;&#9;&#9;c0.151-0.148,0.033-0.31-0.056-0.369c-1.48-0.64-2.28-0.961-3.766-1.613c-1.412-0.58-2.977-1.207-4.906-2.078&#10;&#9;&#9;c-0.105-0.059,0.055-0.363,0.275-0.365c0.089-0.002,0.125,0.018,0.209,0.045C48.714,57.975,52.163,59.401,54.235,60.26z&#10;&#9;&#9; M57.389,50.911c-0.81,1.061-1.626,1.967-2.524,2.855c-0.461,0.529-2.669,2.146-2.704,2.311c-0.002,0.012,0.143,0.332,0.133,0.566&#10;&#9;&#9;c-0.211,0.372-0.351,0.479-0.786,0.711c-0.262,0.143-0.232,0.098-0.376-0.033c-0.073-0.113-0.126-0.178-0.261-0.271&#10;&#9;&#9;c-0.135-0.071-0.18-0.1-0.453,0.041c-0.201,0.17-0.522,0.404-0.898,0.522c-0.238,0.132-0.391,0.118-0.432-0.155&#10;&#9;&#9;c-0.053-0.158,0.019-0.373,0.17-0.463c1.851-0.988,3.144-1.926,4.781-3.267c1.097-0.929,2.377-2.565,2.826-3.046&#10;&#9;&#9;C57.218,50.26,57.577,50.678,57.389,50.911z M62.416,47.308c-0.036,0.137-0.041,0.133-0.327,0.192&#10;&#9;&#9;c-0.076-0.121-0.102-0.27-0.065-0.438c0.026-0.138,0.177-0.158,0.335-0.192C62.421,46.941,62.469,47.109,62.416,47.308z&#10;&#9;&#9; M63.659,46.842c-0.044,0.158-0.046,0.15-0.371,0.22c-0.089-0.14-0.117-0.308-0.078-0.502c0.033-0.157,0.206-0.183,0.385-0.22&#10;&#9;&#9;C63.668,46.422,63.722,46.613,63.659,46.842z M64.951,46.424c-0.023,0.179-0.058,0.179-0.445,0.262&#10;&#9;&#9;c-0.103-0.167-0.137-0.366-0.089-0.598c0.037-0.187,0.242-0.215,0.456-0.26C64.959,45.926,65.023,46.154,64.951,46.424z&#10;&#9;&#9; M66.167,45.926c-0.021,0.187-0.057,0.187-0.462,0.273c-0.107-0.174-0.143-0.383-0.094-0.625c0.039-0.195,0.252-0.224,0.477-0.271&#10;&#9;&#9;C66.177,45.407,66.242,45.644,66.167,45.926z M67.396,45.454c-0.024,0.209-0.064,0.209-0.521,0.31&#10;&#9;&#9;c-0.121-0.197-0.162-0.431-0.106-0.705c0.046-0.222,0.285-0.251,0.537-0.308C67.407,44.868,67.481,45.133,67.396,45.454z&#10;&#9;&#9; M68.577,45.055c-0.027,0.232-0.07,0.232-0.571,0.338c-0.134-0.215-0.177-0.473-0.117-0.77c0.05-0.242,0.314-0.276,0.59-0.338&#10;&#9;&#9;C68.591,44.415,68.671,44.708,68.577,45.055z M69.849,44.547c-0.028,0.25-0.078,0.25-0.617,0.365&#10;&#9;&#9;c-0.146-0.231-0.192-0.51-0.128-0.834c0.056-0.261,0.339-0.299,0.638-0.361C69.862,43.853,69.95,44.17,69.849,44.547z&#10;&#9;&#9; M70.114,48.385c-0.11-0.266-0.162-0.848,0.621-1.528c0.136-0.062,0.26-0.017,0.324,0.06c0.249,0.342-0.232,1.199-0.688,1.529&#10;&#9;&#9;C70.318,48.483,70.151,48.474,70.114,48.385z M72.298,45.42c-0.063,0.184-0.107,0.418-0.121,0.567&#10;&#9;&#9;c-0.031-0.002,0.064,3.33-1.122,3.351c-0.213-0.021-0.296-0.035-0.504-0.055c-0.221-0.055-0.175-0.287-0.088-0.47&#10;&#9;&#9;c0.153-0.11,0.665-0.826,0.853-1.36c0.146-0.254,0.229-0.767,0.107-1.17c-0.03-0.004-0.025-0.732,0.008-1.091&#10;&#9;&#9;c0.029-0.31,0.085-0.411-0.403-0.581c-0.148-0.07-0.357-0.078-0.542-0.102c-0.101-0.012-0.268-0.182-0.27-0.237&#10;&#9;&#9;c-0.024-0.565-0.028-0.929,0.577-0.942c0.157-0.021,0.371,0.09,0.417,0.125c0.183,0.147,0.295,0.281,0.517,0.422&#10;&#9;&#9;c0.06,0.006,0.433,0.291,0.523,0.299C72.896,44.577,72.624,44.825,72.298,45.42z"/></g></svg>